<?xml version="1.0" encoding="utf-8"?>
<!-- Generator: Adobe Illustrator 16.0.4, SVG Export Plug-In . SVG Version: 6.00 Build 0)  -->
<!DOCTYPE svg PUBLIC "-//W3C//DTD SVG 1.1//EN" "http://www.w3.org/Graphics/SVG/1.1/DTD/svg11.dtd">
<svg version="1.1" id="Layer_2" xmlns="http://www.w3.org/2000/svg" xmlns:xlink="http://www.w3.org/1999/xlink" x="0px" y="0px"
	 width="500px" height="500px" viewBox="0 0 500 500" enable-background="new 0 0 500 500" xml:space="preserve">
<linearGradient id="SVGID_1_" gradientUnits="userSpaceOnUse" x1="445.167" y1="114.8428" x2="298.2767" y2="30.0357" gradientTransform="matrix(1 0 0 1 -162 -39)">
	<stop  offset="0" style="stop-color:#FFFFFF"/>
	<stop  offset="0.1229" style="stop-color:#FFFFFF"/>
	<stop  offset="0.2472" style="stop-color:#F6FCFE"/>
	<stop  offset="0.4457" style="stop-color:#DFF3FB"/>
	<stop  offset="0.6934" style="stop-color:#B9E5F7"/>
	<stop  offset="0.9784" style="stop-color:#85D2F1"/>
	<stop  offset="1" style="stop-color:#81D0F0"/>
</linearGradient>
<path fill="url(#SVGID_1_)" d="M102.964,54.046c8.602,0.914,17.048,2.852,25.39,5.098c7.845,2.114,15.604,4.509,23.396,6.807
	c9.32,2.747,18.884,4.269,28.55,5.252c14.945,1.519,30.174,2.483,45.201,2.012c13.585-0.427,27.781-1.769,39.953-8.324
	c21.819-11.752,41.368-30.25,53.955-51.821c-22.052-6.461-45.372-9.949-69.514-9.949c-56.364,0-108.308,18.894-149.859,50.687
	C101.026,53.862,102.007,53.943,102.964,54.046z"/>
<linearGradient id="SVGID_2_" gradientUnits="userSpaceOnUse" x1="532.6318" y1="269.8125" x2="236.5797" y2="98.8868" gradientTransform="matrix(1 0 0 1 -162 -39)">
	<stop  offset="0" style="stop-color:#FFFFFF"/>
	<stop  offset="0.1229" style="stop-color:#FFFFFF"/>
	<stop  offset="0.2472" style="stop-color:#F6FCFE"/>
	<stop  offset="0.4457" style="stop-color:#DFF3FB"/>
	<stop  offset="0.6934" style="stop-color:#B9E5F7"/>
	<stop  offset="0.9784" style="stop-color:#85D2F1"/>
	<stop  offset="1" style="stop-color:#81D0F0"/>
</linearGradient>
<path fill="url(#SVGID_2_)" d="M362.902,30.464c-1.438,3.348-3.49,6.694-5.489,9.605c-1.396,2.958-2.99,5.818-4.737,8.553
	c-13.996,21.896-35.44,40.151-58.396,52.16c-24.262,12.692-49.635,16.962-76.752,14.021c-14.803-1.606-29.605-3.508-44.212-6.433
	c-15.278-3.059-30.196-7.335-45.689-9.311c-14.986-1.911-30.449-3.642-45.571-2.908c-7.391,0.359-14.712,1.239-21.949,2.805
	c-2.225,0.481-4.44,1.004-6.65,1.551c-25.158,33.006-42.198,72.532-48.112,115.612c20.767,2.71,41.752,1.301,62.677,0.57
	c18.086-1.906,36.116-4.502,53.867-8.488c30.721-6.898,59.099-18.783,87.467-32.22c28.239-13.376,56.31-26.878,85.243-38.715
	c28.623-11.708,57.695-23.019,87.884-30.03c14.602-3.391,28.809-6.662,43.823-7.239c5.87-0.226,11.877-0.898,17.738-0.208
	c0.696,0.083,1.371,0.207,2.035,0.346C423.938,71.195,395.537,47.299,362.902,30.464z"/>
<linearGradient id="SVGID_3_" gradientUnits="userSpaceOnUse" x1="609.6826" y1="390.209" x2="236.7402" y2="174.8907" gradientTransform="matrix(1 0 0 1 -162 -39)">
	<stop  offset="0" style="stop-color:#FFFFFF"/>
	<stop  offset="0.1229" style="stop-color:#FFFFFF"/>
	<stop  offset="0.2472" style="stop-color:#F6FCFE"/>
	<stop  offset="0.4457" style="stop-color:#DFF3FB"/>
	<stop  offset="0.6934" style="stop-color:#B9E5F7"/>
	<stop  offset="0.9784" style="stop-color:#85D2F1"/>
	<stop  offset="1" style="stop-color:#81D0F0"/>
</linearGradient>
<path fill="url(#SVGID_3_)" d="M477.846,155.127c-10.805-5.667-22.303-11.187-34.318-13.456c-9.682-0.769-19.77,1.132-29.057,3.413
	c-22.137,5.437-43.771,13.17-65.151,21.01c-30.002,11.002-59.921,22.495-89.367,34.904c-28.868,12.165-57.401,25.244-86.682,36.404
	c-28.337,10.8-57.517,19.773-87.686,23.589c-14.253,1.802-28.725,2.54-43.091,2.521c-13.156-0.018-26.421-0.771-39.266-3.758
	c0.708,18.201,3.396,35.889,7.836,52.87c10.863-2.104,21.749-3.998,32.651-5.752c45.438-10.632,92.06-15.001,137.969-23.079
	c16.276-2.864,32.536-5.696,48.822-8.436c37.125-7.242,74.486-13.318,112.014-17.517c31.725-3.546,63.603-4.017,95.4-1.093
	c19.06,1.751,39.986,3.354,58.249,10.48c0.393-5.694,0.607-11.438,0.607-17.232C496.774,216.376,490.021,184.339,477.846,155.127z"
	/>
<linearGradient id="SVGID_4_" gradientUnits="userSpaceOnUse" x1="583.6797" y1="485.2305" x2="252.463" y2="294.0025" gradientTransform="matrix(1 0 0 1 -162 -39)">
	<stop  offset="0" style="stop-color:#FFFFFF"/>
	<stop  offset="0.1229" style="stop-color:#FFFFFF"/>
	<stop  offset="0.2472" style="stop-color:#F6FCFE"/>
	<stop  offset="0.4457" style="stop-color:#DFF3FB"/>
	<stop  offset="0.6934" style="stop-color:#B9E5F7"/>
	<stop  offset="0.9784" style="stop-color:#85D2F1"/>
	<stop  offset="1" style="stop-color:#81D0F0"/>
</linearGradient>
<path fill="url(#SVGID_4_)" d="M73.662,394.904c8.366-2.264,16.7-3.961,25.281-5.178c31.624-4.486,62.827-4.201,94.561-1.012
	c31.667,3.186,63.042,7.311,94.875,8.646c30.723,1.291,61.622,3.29,92.375,3.186c14.618-0.049,29.36-0.586,43.833-2.793
	c7.367-1.124,14.715-2.521,21.9-4.521c1.818-0.508,3.688-1.01,5.562-1.541c15.527-22.118,27.528-46.896,35.162-73.52
	c-15.818-7.898-33.568-11.738-51.051-13.634c-19.815-2.147-40.009-2.706-59.912-1.599c-31.98,1.777-63.509,7.494-94.938,13.398
	c-31.448,5.906-62.998,10.928-94.583,16.023c-31.784,5.13-63.414,11.31-95.281,15.884c-14.346,2.06-29.713,2.964-43.653,7.03
	c-5.925,1.729-12.164,4.289-18.475,5.632c6.881,13.661,14.996,26.595,24.194,38.657C60.347,398.669,67.022,396.699,73.662,394.904z"
	/>
<linearGradient id="SVGID_5_" gradientUnits="userSpaceOnUse" x1="521.8984" y1="551.623" x2="289.4923" y2="417.4435" gradientTransform="matrix(1 0 0 1 -162 -39)">
	<stop  offset="0" style="stop-color:#FFFFFF"/>
	<stop  offset="0.1229" style="stop-color:#FFFFFF"/>
	<stop  offset="0.2472" style="stop-color:#F6FCFE"/>
	<stop  offset="0.4457" style="stop-color:#DFF3FB"/>
	<stop  offset="0.6934" style="stop-color:#B9E5F7"/>
	<stop  offset="0.9784" style="stop-color:#85D2F1"/>
	<stop  offset="1" style="stop-color:#81D0F0"/>
</linearGradient>
<path fill="url(#SVGID_5_)" d="M388.467,447.432c-12.938-1.069-25.955-0.655-38.927-0.991c-31.88-0.825-64.304-1.615-95.954-5.696
	c-30.955-3.992-62.142-11.946-93.505-11.263c-23.09,0.503-45.547,5.433-68.008,10.312c42.781,35.636,97.786,57.086,157.823,57.086
	c55.189,0,106.127-18.128,147.229-48.734C394.211,447.938,391.312,447.667,388.467,447.432z"/>
</svg>
